# File created by Blade
# Date/Time:  Tue Sep 30 19:15:05 2014
# Frame Rate: 120.000 fps
#------------------------------------------------------
:FULLY-SPECIFIED
:DEGREES
2614
root -2.382695 33.973733 -4.460191 25.574810 -13.894816 -31.112759
Spine -12.495942 -3.844892 25.301939
Head -4.837796 -25.474255 17.774706
LeftShoulder 22.405412 7.877259 20.387721
LeftArm 3.667227 -24.533430 -74.973080
LeftForeArm -135.039894 10.925840 -10.747040
LeftHand -0.000029 36.728823 12.702132
LeftHandThumb1 30.357831 13.997178 22.438692
RightShoulder -5.612645 -26.222991 -21.675596
RightArm 9.816619 -26.871111 72.120705
RightForeArm 19.041011 -9.545576 25.663997
RightHand -0.000039 -9.487836 38.642320
RightHandThumb1 30.482666 -12.916435 -20.793814
LeftUpLeg -27.135254 11.077323 21.961602
LeftLeg 21.960400 -0.000000 -0.000000
LeftFoot -16.272068 23.123743 -1.130828
LeftToeBase 4.659200 -0.000000 0.000000
RightUpLeg -55.931274 0.746412 -42.589193
RightLeg 124.342796 -0.000000 -0.000000
RightFoot 26.876599 -8.618528 -11.172207
RightToeBase 16.153299 -0.000000 -0.000000
2615
root -2.368995 33.962033 -4.455691 25.563974 -14.144135 -31.017807
Spine -12.414761 -3.781196 25.116498
Head -4.836719 -25.414213 17.740358
LeftShoulder 22.418242 7.917610 20.424792
LeftArm 3.417696 -24.520842 -74.902577
LeftForeArm -134.913815 10.466169 -10.265522
LeftHand -0.000039 36.530935 12.164893
LeftHandThumb1 30.357831 13.997178 22.438692
RightShoulder -5.651380 -26.182929 -21.680232
RightArm 9.832412 -26.837573 72.117882
RightForeArm 19.153154 -9.643256 25.748078
RightHand 0.000038 -9.512123 38.606928
RightHandThumb1 30.482666 -12.916435 -20.793814
LeftUpLeg -27.058029 10.969550 21.831592
LeftLeg 22.004601 0.000000 0.000000
LeftFoot -16.340476 23.415734 -1.182950
LeftToeBase 4.619500 0.000000 0.000000
RightUpLeg -56.006986 0.631543 -42.378913
RightLeg 124.139999 -0.000000 -0.000000
RightFoot 26.868583 -8.644850 -11.017627
RightToeBase 16.146900 -0.000000 -0.000000
2616
root -2.354995 33.952931 -4.454891 25.594506 -14.386837 -30.954380
Spine -12.364540 -3.664556 24.965993
Head -4.842502 -25.376598 17.694074
LeftShoulder 22.438966 7.922235 20.439760
LeftArm 3.192552 -24.518573 -74.823217
LeftForeArm -134.786024 9.978678 -9.758948
LeftHand 0.000011 36.280605 11.842902
LeftHandThumb1 30.357831 13.997178 22.438692
RightShoulder -5.682110 -26.169085 -21.702580
RightArm 9.826812 -26.800085 72.114854
RightForeArm 19.255357 -9.680657 25.705323
RightHand 0.000020 -9.505899 38.540237
RightHandThumb1 30.482666 -12.916435 -20.793814
LeftUpLeg -27.027859 10.991584 21.702332
LeftLeg 22.059299 -0.000000 0.000000
LeftFoot -16.351830 23.554863 -1.187336
LeftToeBase 4.508600 0.000000 0.000000
RightUpLeg -56.114943 0.480250 -42.097867
RightLeg 123.946602 0.000000 0.000000
RightFoot 26.805197 -8.785462 -10.932549
RightToeBase 16.225401 0.000000 0.000000
2617
root -2.342795 33.944531 -4.449791 25.601610 -14.653592 -30.907269
Spine -12.286922 -3.561590 24.827698
Head -4.823220 -25.315613 17.628855
LeftShoulder 22.455726 7.939898 20.427426
LeftArm 2.930657 -24.488573 -74.726308
LeftForeArm -134.654249 9.484490 -9.246843
LeftHand -0.000037 35.959668 11.315802
LeftHandThumb1 30.357831 13.997178 22.438692
RightShoulder -5.692040 -26.134312 -21.715582
RightArm 9.826544 -26.759031 72.102350
RightForeArm 19.433126 -9.752620 25.647327
RightHand -0.000032 -9.585095 38.510025
RightHandThumb1 30.482666 -12.916435 -20.793814
LeftUpLeg -26.947819 11.079081 21.570095
LeftLeg 22.097700 -0.000000 -0.000000
LeftFoot -16.388113 23.642088 -1.161819
LeftToeBase 4.473400 -0.000000 -0.000000
RightUpLeg -56.242146 0.397301 -41.839458
RightLeg 123.778603 -0.000000 -0.000000
RightFoot 26.851329 -8.569715 -10.976494
RightToeBase 15.959100 -0.000000 -0.000000
2618
root -2.328695 33.934033 -4.446991 25.597116 -14.903211 -30.823730
Spine -12.206259 -3.482533 24.649478
Head -4.828055 -25.243328 17.596068
LeftShoulder 22.529335 7.969886 20.446063
LeftArm 2.681978 -24.487607 -74.616832
LeftForeArm -134.487449 9.023702 -8.758226
LeftHand -0.000042 35.473523 10.727450
LeftHandThumb1 30.357831 13.997178 22.438692
RightShoulder -5.692822 -26.107631 -21.722944
RightArm 9.819302 -26.709170 72.113266
RightForeArm 19.594491 -9.814407 25.587211
RightHand 0.000047 -9.616464 38.441935
RightHandThumb1 30.482666 -12.916435 -20.793814
LeftUpLeg -26.889296 11.119619 21.423591
LeftLeg 22.150101 0.000000 0.000000
LeftFoot -16.455350 23.690324 -1.202741
LeftToeBase 4.505300 -0.000000 -0.000000
RightUpLeg -56.350340 0.269157 -41.593209
RightLeg 123.611000 -0.000000 -0.000000
RightFoot 26.824014 -8.697095 -10.892035
RightToeBase 15.980700 -0.000000 -0.000000
